<?xml version="1.0" encoding="utf-8"?>
<!-- Generator: Adobe Illustrator 25.4.1, SVG Export Plug-In . SVG Version: 6.00 Build 0)  -->
<svg version="1.1" id="Layer_1" xmlns="http://www.w3.org/2000/svg" xmlns:xlink="http://www.w3.org/1999/xlink" x="0px" y="0px"
	 width="33px" height="28px" viewBox="0 0 33 28" style="enable-background:new 0 0 33 28;" xml:space="preserve">
<style type="text/css">
	.st0{fill:#FFFFFF;enable-background:new    ;}
	.st1{fill:#FFFFFF;}
</style>
<rect x="0.6" y="0.1" class="st0" width="0.8" height="27.6"/>
<g>
	<path class="st1" d="M21.6,27.8l0.4-1.4c0,0-3.1-0.9-5.9-3.5C16.1,22.9,17.1,26.3,21.6,27.8z"/>
	<path class="st1" d="M30.8,1.9c-2.3-1.2-5.9,1.9-6.9,2.8c-1.8,1.5-2.7,3.1-3.3,4c-0.4,0.7-2.1,3.7-2.5,8.1c-0.1,1.6-0.1,3,0,3.9
		c0-1.7,0.2-3.2,0.5-4.2c0,0,0.9-4,3.3-7.4c0.7-1,1.7-2.1,1.7-2.1s2-2.3,4-3.4c0.2-0.1,0.7-0.3,1.2-0.4c0.4,0,1.1-0.1,1.7,0.3
		c0.8,0.5,0.9,1.4,0.9,1.6c0.1,0.5,0.1,1,0.1,1.7c0,0,0,1.1-0.2,2.1c-0.4,2.3-1.8,4.5-2.3,5.2c-1.2,1.8-2.5,3.1-3.4,3.9
		c-0.3-0.1-0.6-0.2-1.1-0.2c-0.4,0-0.7,0-1,0c-0.2,0-0.5,0.1-0.9,0.2c-0.2,0.1-0.3,0.2-0.5,0.2c-0.2,0.1-0.7,0.5-0.8,1
		c0,0.1,0,0.3,0.1,0.4c0,0.1,0.1,0.1,0.3,0.2c0.8,0.5,2-0.3,2.6-0.6c0.3-0.2,0.8-0.5,1.3-1c2,1.2,3,2.5,3.5,3.3s1.1,1.8,0.7,2.8
		c-0.2,0.5-0.5,0.8-0.6,0.9c-0.6,0.5-1.3,0.6-2,0.6c-1.1,0.1-1.9-0.2-2.9-0.4c-0.9-0.2-1.6-0.5-2.1-0.7c-0.8-0.3-1.7-0.8-2.8-1.5
		c1,1,2.6,2.3,4.7,3.1c1.8,0.6,3,0.6,3.5,0.5c0.8-0.1,2.2-0.2,2.9-1.3c0.4-0.6,0.4-1.2,0.4-1.7c0-1.7-1.1-2.9-1.6-3.6
		c-1.1-1.3-2.4-2-3.2-2.3c1.3-1.1,2.3-2.2,3-3c0.7-0.9,1.2-1.7,1.5-2.2c0.1-0.2,0.2-0.4,0.3-0.6c0,0,0.5-0.9,0.9-1.7
		C32.4,9.3,33.4,3.3,30.8,1.9z M23.9,19.2c-0.4,0.2-1.4,0.7-1.8,0.4c-0.1-0.1-0.2-0.2-0.2-0.4c0-0.2,0.2-0.4,0.7-0.7
		c0.1-0.1,0.7-0.4,1.6-0.3c0.4,0,0.7,0.1,0.9,0.1C24.7,18.7,24.2,19,23.9,19.2z"/>
	<path class="st1" d="M28.4,23.6c0.1-0.2,0.1-0.4,0.1-0.8c-0.2-2.1-2.1-3.6-2.8-4.2c-0.3,0.3-0.7,0.8-1.3,1.2
		c-0.6,0.4-1.1,0.7-1.6,0.8c-0.1,0-0.6,0.2-1.1-0.1c-0.4-0.3-0.6-0.7-0.6-0.8c0-0.2-0.1-0.6,0.1-1c0.2-0.5,0.7-0.8,1-0.9
		c1.3-0.7,2.9-0.3,3.4-0.1c1.9-2,2.8-3.9,3.3-5.1c0.1-0.3,0.7-1.6,0.8-3.3c0.1-1.4-0.2-2-0.4-2.4c-0.1-0.2-0.4-0.6-0.9-0.8
		C27,5.5,25.3,7,24.3,7.8c-1.4,1.2-2.2,2.4-2.8,3.3c-0.3,0.4-1.2,2-2,4.2c-0.3,0.8-0.4,1.3-0.5,2c-0.2,1.2-0.5,3.3,0.8,5.2
		c1.3,1.8,3.3,2.2,3.8,2.3C25.2,25.2,27.8,25,28.4,23.6z"/>
	<path class="st1" d="M17.2,19.2c-0.1-1.6,0.1-2.9,0.2-3.7c0.3-1.6,0.7-2.9,1.3-4.6c0.2-0.7,0.4-1.3,0.6-1.7c-0.2-0.4-0.5-1-1-1.6
		c-0.1-0.1-2.6-3.6-4-3c-0.2,0.1-0.6,0.3-0.9,1.8c-0.4,2.1-0.1,4.1,1,6.9C14.9,14.8,15.8,16.9,17.2,19.2z"/>
	<path class="st1" d="M19.7,8.8c-0.1,0-0.7-1.7-2.3-4c-0.8-1.1-2.1-3-3.7-3.2c-0.3,0-0.5,0-0.8,0.1S12,2.2,11.8,4
		c-0.2,1.5,0,2.8,0.4,4.7c0.9,3.7,1.9,6,2.2,6.6c0.6,1.3,0.9,1.9,1.4,2.6c0.7,1,1.3,2.1,2.1,3.1c0.2,0.2,0.6,0.8,0.5,1
		c-0.1,0.1-0.2,0.1-0.3,0.1c-1.4-1.6-2.4-3.1-3.1-4.2c-1-1.6-2.4-3.8-3.4-6.9c-0.5-1.6-0.7-2.6-0.9-4.4c-0.1-0.5-0.1-1-0.1-1.3
		c-0.1-1.7-0.1-2.7,0.4-3.6c0.2-0.3,0.5-0.8,1.1-1.1c0.2-0.1,0.4-0.1,0.5-0.1c1.7-0.2,3.9,2,5.2,3.9C19.3,6.6,19.8,8.8,19.7,8.8z"/>
	<path class="st1" d="M12.8,19.4c-0.2-0.2-0.3-0.4-0.3-0.5c-0.3-0.5-0.7-1.4-0.9-1.4c0,0-0.1,0-0.1-0.1c0,0-0.1-0.1-0.1-0.2
		s0.1-0.1,0.1-0.1s0.1,0,0.2,0c0.1,0,0.1,0.2,0.1,0.2c0.1,0.2,0.2,0.4,0.3,0.6C12.3,18.5,12.6,19,12.8,19.4z"/>
	<path class="st1" d="M13.4,18.6c-0.1-0.1-0.2-0.3-0.2-0.5c-0.1-0.2-0.3-0.5-0.4-1c0-0.1-0.1-0.3-0.1-0.5c0,0,0,0,0-0.1
		c0,0,0-0.1,0.1-0.1s0.1,0,0.1,0.1c0,0,0,0,0,0.1s0,0.1,0,0.1c0,0.1,0,0.3,0.1,0.7c0,0.1,0.1,0.2,0.3,0.7
		C13.3,18.4,13.4,18.5,13.4,18.6z"/>
	<circle class="st1" cx="15.3" cy="22.1" r="0.8"/>
</g>
</svg>
