<?xml version="1.0" encoding="utf-8"?>
<!-- Generator: Adobe Illustrator 19.0.0, SVG Export Plug-In . SVG Version: 6.00 Build 0)  -->
<svg version="1.1" id="Layer_1" xmlns="http://www.w3.org/2000/svg" xmlns:xlink="http://www.w3.org/1999/xlink" x="0px" y="0px"
	 width="698.1px" height="309px" viewBox="-318.6 -141 698.1 309" style="enable-background:new -318.6 -141 698.1 309;"
	 xml:space="preserve">
<g id="XMLID_3_">
	<path id="XMLID_14_" d="M351.9,74.8c-4.8-4.7-10.4-8.4-16.9-11c-6.5-2.6-13.6-3.9-21.2-3.9h-24.6h-4.7h-9.5v104.9h9.4h4.8H314
		c7.6,0,14.6-1.3,21.1-3.9c6.5-2.6,12.1-6.3,16.8-11c4.7-4.7,8.4-10.3,11.1-16.7c2.7-6.4,4-13.3,4-20.8c0-7.6-1.3-14.5-4-20.9
		C360.4,85.1,356.6,79.6,351.9,74.8z M347.5,132.7c-3.3,5.9-7.8,10.6-13.7,14c-5.8,3.4-12.6,5.1-20.4,5.1h-24.3V72.9h24.3
		c7.7,0,14.4,1.7,20.3,5c5.8,3.3,10.4,8,13.8,13.9c3.3,5.9,5,12.7,5,20.4C352.4,119.9,350.7,126.8,347.5,132.7z"/>
	<circle id="XMLID_15_" cx="296.6" cy="29.6" r="9"/>
	<path id="XMLID_18_" d="M247.5,73.9c-4.8-4.9-10.4-8.8-16.8-11.5c-6.4-2.7-13.3-4.1-20.8-4.1c-7.5,0-14.4,1.4-20.8,4.1
		c-6.4,2.7-12,6.6-16.8,11.5c-4.8,4.9-8.5,10.7-11.2,17.2c-2.7,6.5-4,13.5-4,21.1c0,7.5,1.3,14.5,4,21c2.7,6.5,6.4,12.3,11.3,17.3
		c4.8,5,10.5,8.9,16.9,11.6c6.4,2.8,13.4,4.2,20.8,4.2c7.4,0,14.2-1.4,20.6-4.2c6.4-2.8,12-6.6,16.8-11.6
		c4.8-4.9,8.5-10.7,11.3-17.2c2.7-6.5,4.1-13.5,4.1-21c0-7.6-1.4-14.6-4.1-21.2C256.1,84.6,252.3,78.8,247.5,73.9z M243.3,133.1
		c-3.3,6.1-7.8,10.9-13.5,14.4c-5.7,3.5-12.3,5.2-19.9,5.2c-5.5,0-10.7-1-15.3-3c-4.7-2-8.7-4.8-12.1-8.4c-3.4-3.6-6-7.9-7.9-12.8
		c-1.9-5-2.8-10.4-2.8-16.2c0-7.9,1.6-14.8,4.9-20.9c3.3-6,7.8-10.8,13.5-14.2c5.7-3.4,12.3-5.1,19.7-5.1c5.6,0,10.8,1,15.4,2.9
		c4.6,2,8.7,4.8,12.1,8.4c3.4,3.6,6.1,7.9,8,12.8c1.9,4.9,2.9,10.3,2.9,16.1C248.3,120,246.6,127,243.3,133.1z"/>
	<path id="XMLID_21_" d="M-158.4,73.9c-4.8-4.9-10.5-8.8-16.8-11.5c-6.4-2.7-13.3-4.1-20.8-4.1c-7.5,0-14.4,1.4-20.8,4.1
		c-6.4,2.7-12,6.6-16.8,11.5c-4.8,4.9-8.5,10.7-11.2,17.2c-2.7,6.5-4,13.5-4,21.1c0,7.5,1.3,14.5,4,21c2.7,6.5,6.4,12.3,11.3,17.3
		c4.8,5,10.5,8.9,16.9,11.6c6.4,2.8,13.4,4.2,20.9,4.2c7.4,0,14.2-1.4,20.6-4.2c6.4-2.8,12-6.6,16.8-11.6
		c4.8-4.9,8.5-10.7,11.3-17.2c2.7-6.5,4.1-13.5,4.1-21c0-7.6-1.4-14.6-4.1-21.2C-149.8,84.6-153.5,78.8-158.4,73.9z M-162.6,133.1
		c-3.3,6.1-7.8,10.9-13.5,14.4c-5.7,3.5-12.3,5.2-19.9,5.2c-5.5,0-10.7-1-15.3-3c-4.7-2-8.7-4.8-12.1-8.4c-3.4-3.6-6-7.9-7.9-12.8
		c-1.9-5-2.8-10.4-2.8-16.2c0-7.9,1.6-14.8,4.9-20.9c3.3-6,7.8-10.8,13.5-14.2c5.7-3.4,12.3-5.1,19.7-5.1c5.6,0,10.8,1,15.4,2.9
		c4.6,2,8.7,4.8,12.1,8.4c3.4,3.6,6.1,7.9,8,12.8c1.9,4.9,2.9,10.3,2.9,16.1C-157.6,120-159.3,127-162.6,133.1z"/>
	<path id="XMLID_24_" d="M77.5-19.8c4.8,5,10.5,8.9,16.9,11.6c2.1,0.9,4.9,1.6,7.9,2.2c6.2,1.3,12.7,1,12.9,1h37.7v17.4
		c0,4.3-0.8,8-2.3,11c-1.6,3-3.7,5.2-6.4,6.7c-2.7,1.5-5.8,2.3-9.4,2.3s-6.7-0.8-9.6-2.3c-0.5-0.3-0.9-0.5-1.4-0.8
		c-4.1-2.6-9.3-2.4-12.9,0.9l-2.9,2.6c2.9,4,6.7,7.2,11.3,9.6c4.6,2.4,9.9,3.6,15.9,3.6c6.1,0,11.6-1.4,16.4-4.2
		c4.8-2.8,8.6-6.8,11.3-11.9c2.8-5.1,4.2-11.2,4.2-18.1V-4.7H314c7.6,0,14.6-1.3,21.1-3.9c6.5-2.6,12.1-6.3,16.8-11
		c4.7-4.7,8.4-10.3,11.1-16.7c2.7-6.4,4-13.3,4-20.8c0-7.6-1.3-14.5-4-20.9c-2.7-6.3-6.4-11.9-11.2-16.6c-4.8-4.7-10.4-8.4-16.9-11
		c-6.5-2.6-13.6-3.9-21.2-3.9h-61.4v2.3c0,5.9,4.8,10.7,10.7,10.7h50.4c7.7,0,14.4,1.7,20.3,5c5.8,3.3,10.4,8,13.8,13.9
		c3.3,5.9,5,12.7,5,20.4c0,7.8-1.6,14.6-4.9,20.6c-3.3,5.9-7.8,10.6-13.7,14c-5.8,3.4-12.6,5.1-20.4,5.1H167.5
		c0-14.4,0-42.7-0.1-43.5c-0.3-6.4-1.6-12.4-3.9-18c-2.7-6.5-6.4-12.2-11.2-17.2c-4.8-4.9-10.4-8.8-16.8-11.5
		c-6.4-2.7-13.2-4.1-20.6-4.1v0c0,0-0.1,0-0.1,0c0,0-0.1,0-0.1,0v0c-7.4,0-14.3,1.4-20.6,4.1c-6.4,2.7-12,6.6-16.8,11.5
		c-4.8,4.9-8.5,10.7-11.2,17.2c-2.7,6.5-4,13.5-4,21.1c0,7.5,1.3,14.5,4,21C68.9-30.6,72.7-24.8,77.5-19.8z M81.8-79
		c3.3-6,7.8-10.8,13.5-14.2c5.7-3.4,12.2-5.1,19.6-5.1c7.4,0,14,1.7,19.6,5.1c5.7,3.4,10.2,8.2,13.5,14.2c2.9,5.3,4.5,11.4,4.8,18.1
		c0,0.7,0.1,28.9,0.1,43.2h-38.1v0c-5.5,0-10.5-1-15.2-3c-4.7-2-8.7-4.8-12.1-8.4c-3.4-3.6-6-7.9-7.9-12.8c-1.9-5-2.8-10.4-2.8-16.2
		C76.9-66,78.5-72.9,81.8-79z"/>
	<path id="XMLID_39_" d="M-45,73.9c-4.8-4.9-10.5-8.8-16.8-11.5c-6.4-2.7-13.3-4.1-20.8-4.1c-7.5,0-14.4,1.4-20.8,4.1
		c-6.4,2.7-12,6.6-16.8,11.5c-4.8,4.9-8.5,10.7-11.2,17.2c-2.7,6.5-4,13.5-4,21.1c0,7.5,1.3,14.5,4,21c2.7,6.5,6.4,12.3,11.3,17.3
		c4.8,5,10.5,8.9,16.9,11.6c6.4,2.8,13.4,4.2,20.9,4.2c7.4,0,14.2-1.4,20.6-4.2c6.4-2.8,12-6.6,16.8-11.6
		c4.8-4.9,8.5-10.7,11.3-17.2c2.7-6.5,4.1-13.5,4.1-21c0-7.6-1.4-14.6-4.1-21.2C-36.4,84.6-40.2,78.8-45,73.9z M-49.3,133.1
		c-3.3,6.1-7.8,10.9-13.5,14.4c-5.7,3.5-12.3,5.2-19.9,5.2c-5.5,0-10.7-1-15.3-3c-4.7-2-8.7-4.8-12.1-8.4c-3.4-3.6-6-7.9-7.9-12.8
		c-1.9-5-2.8-10.4-2.8-16.2c0-7.9,1.6-14.8,4.9-20.9c3.3-6,7.8-10.8,13.5-14.2c5.7-3.4,12.3-5.1,19.7-5.1c5.6,0,10.8,1,15.4,2.9
		c4.6,2,8.7,4.8,12.1,8.4c3.4,3.6,6.1,7.9,8,12.8c1.9,4.9,2.9,10.3,2.9,16.1C-44.3,120-45.9,127-49.3,133.1z"/>
	<path id="XMLID_40_" d="M38.4,151.7H-3.5V71c0-6.2-5-11.2-11.2-11.2h-3v104.9H-8h4.5h51.7v-3.2C48.2,156.1,43.8,151.7,38.4,151.7z"
		/>
	<path id="XMLID_43_" d="M47.8,133.2c2.7,6.5,6.4,12.3,11.3,17.3c4.8,5,10.5,8.9,16.9,11.6c6.4,2.8,13.4,4.2,20.9,4.2
		c7.4,0,14.2-1.4,20.6-4.2c6.4-2.8,12-6.6,16.8-11.6c4.8-4.9,8.5-10.7,11.3-17.2c2.7-6.5,4.1-13.5,4.1-21c0-7.6-1.4-14.6-4.1-21.2
		c-2.7-6.6-6.5-12.3-11.3-17.2c-4.8-4.9-10.5-8.8-16.8-11.5c-6.4-2.7-13.3-4.1-20.8-4.1c-7.5,0-14.4,1.4-20.8,4.1
		c-6.4,2.7-12,6.6-16.8,11.5c-4.8,4.9-8.5,10.7-11.2,17.2c-2.7,6.5-4,13.5-4,21.1C43.8,119.6,45.1,126.6,47.8,133.2z M63.4,91.3
		c3.3-6,7.8-10.8,13.5-14.2c5.7-3.4,12.3-5.1,19.7-5.1c5.6,0,10.8,1,15.4,2.9c4.6,2,8.7,4.8,12.1,8.4c3.4,3.6,6.1,7.9,8,12.8
		c1.9,4.9,2.9,10.3,2.9,16.1c0,7.9-1.7,14.8-5,20.9c-3.3,6.1-7.8,10.9-13.5,14.4c-5.7,3.5-12.3,5.2-19.9,5.2c-5.5,0-10.7-1-15.3-3
		c-4.7-2-8.7-4.8-12.1-8.4c-3.4-3.6-6-7.9-7.9-12.8c-1.9-5-2.8-10.4-2.8-16.2C58.5,104.3,60.1,97.3,63.4,91.3z"/>
	<path id="XMLID_46_" d="M-162.7-19.8c4.8,5,10.5,8.9,16.9,11.6c2.1,0.9,4.9,1.6,7.9,2.2c6.2,1.3,12.7,1,12.9,1h37.7v17.4
		c0,4.3-0.8,8-2.3,11c-1.6,3-3.7,5.2-6.4,6.7c-2.7,1.5-5.8,2.3-9.4,2.3c-3.5,0-6.7-0.8-9.6-2.3c-0.3-0.1-0.5-0.3-0.8-0.4
		c-4.7-2.8-10.7-2.1-14.7,1.6l-1.7,1.5c2.9,4,6.7,7.2,11.3,9.6c4.6,2.4,9.9,3.6,15.9,3.6c6.1,0,11.6-1.4,16.4-4.2
		c4.8-2.8,8.6-6.8,11.3-11.9c2.8-5.1,4.2-11.2,4.2-18.1V-4.9H7.4c36.5,0,39.5-32.3,39.5-45.2v-89.1h-0.9c-6.9,0-12.5,5.6-12.5,12.5
		v78.6c0,19.6-11.2,30.5-29.5,30.5h-76.5c0-14.3,0-42.8-0.1-43.6c-0.3-6.4-1.6-12.4-3.9-18c-2.7-6.5-6.4-12.2-11.2-17.2
		c-4.8-4.9-10.4-8.8-16.8-11.5c-6.4-2.7-13.2-4.1-20.6-4.1v0c0,0-0.1,0-0.1,0c0,0-0.1,0-0.1,0v0c-7.4,0-14.3,1.4-20.6,4.1
		c-6.4,2.7-12,6.6-16.8,11.5c-4.8,4.9-8.5,10.7-11.2,17.2c-2.7,6.5-4,13.5-4,21.1c0,7.5,1.3,14.5,4,21
		C-171.2-30.5-167.5-24.8-162.7-19.8z M-158.3-78.9c3.3-6,7.8-10.8,13.5-14.2c5.7-3.4,12.2-5.1,19.6-5.1c7.4,0,14,1.7,19.6,5.1
		c5.7,3.4,10.2,8.2,13.5,14.2c2.9,5.3,4.5,11.4,4.8,18.1c0,0.7,0.1,28.9,0.1,43.2h-38.1v0c-5.5,0-10.5-1-15.2-3
		c-4.7-2-8.7-4.8-12.1-8.4c-3.4-3.6-6-7.9-7.9-12.8c-1.9-5-2.8-10.4-2.8-16.2C-163.3-65.9-161.6-72.9-158.3-78.9z"/>
	<path id="XMLID_47_" d="M-264.5-4.9h72.6V-77c0-25.6-14.9-37-39.7-37c-21.4,0-38.5,8.7-42,31.8h2.5c5.9,0,11.5-3.1,14.3-8.3
		c4.4-8.5,14-11.1,25.1-11.1c15.6,0,24.3,5.7,25.8,24.1v59.9h-70.8v0.6C-276.5-10.3-271.2-4.9-264.5-4.9z"/>
	<path id="XMLID_48_" d="M-307.3,162.7c4.6,2.4,9.9,3.6,15.9,3.6c6.1,0,11.6-1.4,16.4-4.2c4.8-2.8,8.6-6.8,11.3-11.9
		c2.8-5.1,4.2-11.2,4.2-18.1V59.9h-4c-5.6,0-10.2,4.6-10.2,10.2v62.6c0,4.3-0.8,8-2.3,11c-1.6,3-3.7,5.2-6.4,6.7
		c-2.7,1.5-5.8,2.3-9.4,2.3c-3.5,0-6.7-0.8-9.6-2.3c-0.4-0.2-0.9-0.5-1.3-0.7c-4.3-2.7-10-2-13.8,1.5l-2.1,1.9
		C-315.6,157.1-311.9,160.3-307.3,162.7z"/>
</g>
</svg>
